<svg xmlns="http://www.w3.org/2000/svg" width="48.163" height="47.667" viewBox="0 0 48.163 47.667"><defs><style>.a{fill:#3c9f38;}.b{fill:#45b0e6;}.c{opacity:0.5;}.c,.d{mix-blend-mode:soft-light;isolation:isolate;}.d{fill:#fff;}.e{fill:#cc3d60;}</style></defs><g transform="translate(-459.825 -85.994)"><path class="a" d="M502.547,134.131c-5.329-.9-7.76-11.971-5.534-25.213S505.158,86,510.487,86.9s7.76,11.97,5.534,25.213S507.876,135.028,502.547,134.131Zm7.771-46.226c-4.607-.774-10.239,8.926-12.3,21.182s.091,23.264,4.7,24.039,10.239-8.926,12.3-21.182S514.924,88.68,510.318,87.906Z" transform="translate(-22.611 -0.528)"/><path class="a" d="M464.131,140.292a5.447,5.447,0,0,1-3.705-1.911,3.636,3.636,0,0,1-.449-3.108c1.137-4.514,8.717-10.95,18.861-16.013,13.153-6.565,25.693-8.537,28.547-4.49a3.636,3.636,0,0,1,.449,3.108c-1.137,4.514-8.717,10.949-18.861,16.012C479.041,138.849,469.458,141.188,464.131,140.292Zm39.414-26.451c-4.993-.839-14.68,1.555-24.251,6.331-9.74,4.861-17.276,11.173-18.328,15.35a2.667,2.667,0,0,0,.293,2.271c2.486,3.525,14.969,1.32,27.259-4.814h0c9.739-4.861,17.276-11.173,18.328-15.349a2.668,2.668,0,0,0-.293-2.272A4.436,4.436,0,0,0,503.546,113.841Z" transform="translate(0 -16.588)"/><path class="a" d="M503.574,137.467c-5.428-.912-13.671-5.448-21.7-12.305h0c-8.809-7.523-14.747-15.707-14.777-20.365a3.538,3.538,0,0,1,1.131-2.825c3.676-3.222,15.427,1.832,26.754,11.506,8.809,7.523,14.748,15.708,14.778,20.365a3.538,3.538,0,0,1-1.131,2.824C507.558,137.606,505.8,137.842,503.574,137.467Zm-21.038-13.08c11.681,9.976,22.575,14.008,25.42,11.514a2.568,2.568,0,0,0,.783-2.051c-.028-4.311-5.957-12.369-14.42-19.6-11.682-9.976-22.575-14.008-25.42-11.515a2.57,2.57,0,0,0-.784,2.051C468.143,109.1,474.073,117.159,482.535,124.387Z" transform="translate(-4.521 -9.332)"/><g transform="translate(500.012 123.162)"><path class="b" d="M570.176,191.358a3.631,3.631,0,0,1-3.8-2.135,3.425,3.425,0,0,1-.231-2.1,3.593,3.593,0,0,1,5.232-2.406c.066.037.129.076.193.115a3.408,3.408,0,0,1,.879.817A3.6,3.6,0,0,1,570.176,191.358Z" transform="translate(-566.076 -184.264)"/><path class="c" d="M570.673,193.629a3.631,3.631,0,0,1-3.8-2.135,7.511,7.511,0,0,0,1.61.477,3.674,3.674,0,0,0,4.465-4.021c0-.01,0-.023,0-.034A3.6,3.6,0,0,1,570.673,193.629Z" transform="translate(-566.574 -186.536)"/><path class="d" d="M572.6,186.221a1.021,1.021,0,0,0-.509-.539,2.475,2.475,0,0,0-3.367,1.376.872.872,0,0,0,.362.966,1.756,1.756,0,0,0,1.351.082,4.612,4.612,0,0,0,1.666-.892C572.394,186.981,572.726,186.616,572.6,186.221Z" transform="translate(-567.707 -184.996)"/></g><g transform="translate(460.931 109.64)"><path class="b" d="M466.849,155.606a3.632,3.632,0,0,1-3.8-2.135,3.426,3.426,0,0,1-.231-2.1,3.593,3.593,0,0,1,5.232-2.406c.066.037.129.076.193.115a3.4,3.4,0,0,1,.879.817A3.6,3.6,0,0,1,466.849,155.606Z" transform="translate(-462.749 -148.512)"/><path class="c" d="M467.346,157.877a3.632,3.632,0,0,1-3.8-2.135,7.508,7.508,0,0,0,1.61.477,3.674,3.674,0,0,0,4.465-4.021c0-.011,0-.023,0-.034A3.6,3.6,0,0,1,467.346,157.877Z" transform="translate(-463.247 -150.784)"/><path class="d" d="M469.277,150.47a1.02,1.02,0,0,0-.509-.54,2.476,2.476,0,0,0-3.368,1.376.872.872,0,0,0,.362.965,1.755,1.755,0,0,0,1.351.082,4.618,4.618,0,0,0,1.666-.892C469.067,151.229,469.4,150.864,469.277,150.47Z" transform="translate(-464.38 -149.244)"/></g><g transform="translate(479.22 85.994)"><path class="b" d="M515.2,93.087a3.632,3.632,0,0,1-3.8-2.135,3.427,3.427,0,0,1-.23-2.1,3.592,3.592,0,0,1,5.232-2.405c.066.037.129.076.193.115a3.4,3.4,0,0,1,.878.817A3.6,3.6,0,0,1,515.2,93.087Z" transform="translate(-511.105 -85.994)"/><path class="c" d="M515.7,95.358a3.632,3.632,0,0,1-3.8-2.135,7.514,7.514,0,0,0,1.61.477,3.674,3.674,0,0,0,4.465-4.021c0-.011,0-.023,0-.034A3.6,3.6,0,0,1,515.7,95.358Z" transform="translate(-511.602 -88.265)"/><path class="d" d="M517.633,87.951a1.022,1.022,0,0,0-.509-.54,2.475,2.475,0,0,0-3.367,1.376.872.872,0,0,0,.362.965,1.756,1.756,0,0,0,1.351.082,4.62,4.62,0,0,0,1.666-.892C517.422,88.71,517.754,88.345,517.633,87.951Z" transform="translate(-512.736 -86.725)"/></g><g transform="translate(478.052 104.116)"><path class="e" d="M514.787,145.623a6,6,0,0,1-6.271-3.525,5.658,5.658,0,0,1-.381-3.475,5.933,5.933,0,0,1,8.642-3.972c.109.061.214.126.318.19a5.621,5.621,0,0,1,1.451,1.35C521.076,139.5,519.394,144.959,514.787,145.623Z" transform="translate(-508.017 -133.908)"/><path class="c" d="M515.608,149.373a6,6,0,0,1-6.271-3.525,12.421,12.421,0,0,0,2.659.788A6.067,6.067,0,0,0,519.37,140c0-.017,0-.039,0-.056C521.9,143.246,520.214,148.709,515.608,149.373Z" transform="translate(-508.838 -137.659)"/><path class="d" d="M518.8,137.14a1.685,1.685,0,0,0-.84-.891c-1.986-1.083-5.025.161-5.561,2.273a1.44,1.44,0,0,0,.6,1.595,2.9,2.9,0,0,0,2.231.135,7.619,7.619,0,0,0,2.751-1.473C518.45,138.394,519,137.792,518.8,137.14Z" transform="translate(-510.71 -135.116)"/></g></g></svg>