<svg xmlns="http://www.w3.org/2000/svg" width="33.929" height="56.722" viewBox="0 0 33.929 56.722"><defs><style>.a{fill:#9bf0ff;}.b{fill:#fa0;}.c{fill:#fb3;}.d{fill:#263780;}.e{fill:#fff;mix-blend-mode:soft-light;isolation:isolate;}</style></defs><g transform="translate(-489.967 -240.745)"><path class="a" d="M519.6,339.118c-.082-.116-.161-.235-.242-.354-.953.638-1.932,1.237-2.842,1.851-.676.455-1.338.914-2,1.361a10.724,10.724,0,0,1,.44,3.766,9.95,9.95,0,0,1-5.328,8.632c-9.5,4.989-20.231-5.192-14.664-14.853a11.428,11.428,0,0,1,.8-1.2c-.489-.66-.978-1.328-1.479-2-.628-.834-1.313-1.67-1.968-2.536-.115.061-.23.121-.345.176-1.272.622-2.79-.728-1.55-1.821.166-.144.332-.285.5-.425a55.592,55.592,0,0,1,5.006-3.369c.183-.119.367-.237.548-.359a1.266,1.266,0,1,1,1.322,2.147c-.119.079-.237.158-.354.243.638.953,1.237,1.929,1.851,2.842.383.566.768,1.125,1.144,1.682a10.168,10.168,0,0,1,3.14-.557c.027-.23.053-.457.079-.685.183-1.619.456-3.265.7-4.944.147-1.033.253-2.109.4-3.185-.124-.037-.248-.077-.368-.118-1.341-.459-1.458-2.487.192-2.382.219.014.437.033.657.055a55.2,55.2,0,0,1,5.921,1.158c.216.046.428.091.642.134a1.265,1.265,0,1,1-.582,2.452c-.14-.026-.279-.055-.423-.079-.222,1.126-.49,2.239-.7,3.318-.305,1.572-.572,3.126-.911,4.628l-.2.878a11.419,11.419,0,0,1,2.353,1.561c.68-.509,1.374-1.016,2.066-1.534.836-.625,1.672-1.313,2.538-1.968-.063-.113-.121-.228-.178-.345-.623-1.27.727-2.788,1.82-1.548.147.164.287.333.428.5a55.136,55.136,0,0,1,3.367,5.006c.121.184.237.367.359.548A1.264,1.264,0,1,1,519.6,339.118Z" transform="translate(0 -58.219)"/><path class="b" d="M525.587,390.249a.944.944,0,0,0-.364-.051,3.135,3.135,0,0,0-1.307.572,6.385,6.385,0,0,1-4.189.478c-1.412-.243-2.773-.73-4.182-.992a13.487,13.487,0,0,0-3.889-.149,15.912,15.912,0,0,0-3.481.809c.213.946.618,1.589.622,1.963.006.585-.709.99-.585,1.563a8.506,8.506,0,0,0,1.376,3.1,9.681,9.681,0,0,0,7.791,4,9.361,9.361,0,0,0,5.839-2.081,8.171,8.171,0,0,0,2.9-4.514C526.32,394.1,526.2,391.014,525.587,390.249Z" transform="translate(-12.884 -105.63)"/><path class="c" d="M525.443,388.5a12.262,12.262,0,0,0-3.062,1.2c-1.505.8-2.853,1.927-4.547,2.322a7.55,7.55,0,0,1-5.051-.849,12.721,12.721,0,0,0-3.146-1.4,5.3,5.3,0,0,0-1.837.045,8.546,8.546,0,0,0,1.408,6.644,9.681,9.681,0,0,0,7.79,4h0a9.361,9.361,0,0,0,5.839-2.081,8.393,8.393,0,0,0,3.048-7.994A9.467,9.467,0,0,0,525.443,388.5Z" transform="translate(-12.503 -104.549)"/><path class="d" d="M582.642,365.158a23.964,23.964,0,0,0-1.451-2c-.457-.7-.851-1.439-1.3-2.145a.038.038,0,0,0-.072.023,5.475,5.475,0,0,0,1.029,2.494,4.268,4.268,0,0,0,1.751,1.693C582.636,365.235,582.657,365.188,582.642,365.158Z" transform="translate(-63.577 -85.083)"/><path class="d" d="M547.349,333.167a23.92,23.92,0,0,0-2.448-.337c-.821-.154-1.627-.381-2.447-.546a.038.038,0,0,0-.033.067,5.479,5.479,0,0,0,2.513.982,4.27,4.27,0,0,0,2.434-.094C547.4,333.224,547.381,333.176,547.349,333.167Z" transform="translate(-37.103 -64.769)"/><path class="d" d="M503.847,348.954a24.04,24.04,0,0,0-1.981,1.477c-.693.466-1.427.87-2.128,1.327a.038.038,0,0,0,.023.072,5.48,5.48,0,0,0,2.48-1.062,4.272,4.272,0,0,0,1.669-1.774C503.924,348.958,503.877,348.939,503.847,348.954Z" transform="translate(-6.901 -76.561)"/><path class="e" d="M516.76,369.212a9.2,9.2,0,0,0-4.681,9.223,9.855,9.855,0,0,0,2,4.79c.65.825,2.107,2.37,3.295,1.886a.023.023,0,0,0,.016-.022c-.1-.915-1.14-1.636-1.662-2.33a7.376,7.376,0,0,1-1.6-4,7.523,7.523,0,0,1,4.036-7.148C519.75,370.806,518.326,368.319,516.76,369.212Z" transform="translate(-15.588 -90.763)"/><path class="c" d="M559,245.514a7.256,7.256,0,0,0-2.7-3.567,3.77,3.77,0,0,0-1.555-1.184.352.352,0,0,0-.394.512c.773,1.122,1.541,1.829,1.718,3.272a5.551,5.551,0,0,1-.721,3.479,10.263,10.263,0,0,1-3.422,3.25c1.269-1.4,3-3.534,2.481-5.411a.022.022,0,0,0-.04-.005,24.257,24.257,0,0,1-2.021,3.665c-.91,1.094-1.945,2.065-2.92,3.1-.313.333-.67.716-1.024,1.136a7.088,7.088,0,0,0-2.611,4.634c-.094,1.23.494,3.78,2.043,3.9a.066.066,0,0,0,.063-.083,11.189,11.189,0,0,0-.588-1.191,3.882,3.882,0,0,1-.153-2.071,5.524,5.524,0,0,1,1.667-3.176c1.879-1.853,4.346-2.921,6.314-4.664a7.191,7.191,0,0,0,2.6-4.534,5.97,5.97,0,0,1-.056,1.928c-.556,2.814-3.042,4.364-5.205,5.922a10.078,10.078,0,0,0-3.749,5,5.675,5.675,0,0,0-.049,3.167,4.392,4.392,0,0,0,.687,1.409c.118.158.275.444.511.381a.3.3,0,0,0,.175-.423c-1.726-2.757.019-5.434,2.405-7.014,2.023-1.339,4.284-2.658,5.65-4.723A7.8,7.8,0,0,0,559,245.514Z" transform="translate(-39.496)"/><path class="c" d="M593.9,318.333a8.473,8.473,0,0,0-.609-2.665,14.2,14.2,0,0,1-.874-1.918c-.173-.711.25-1.183.308-1.83-.4-.072-.728-.165-1.028.147a1.822,1.822,0,0,0-.359,1.423,16.479,16.479,0,0,0,1.169,3,7.775,7.775,0,0,1,.43,3.09c-.013.17-.034.337-.061.5A10.3,10.3,0,0,0,592,317.5a10.639,10.639,0,0,1-1.5-4.361,2.532,2.532,0,0,1,3.126-2.816.154.154,0,0,0,.148-.255,2.407,2.407,0,0,0-3.049-.288,3.893,3.893,0,0,0-1.783,3.558c.074,1.953,1.227,3.64,2.063,5.334a6.745,6.745,0,0,1,.94,3.231c-.031.722-.7,1.448-.473,2.124a.044.044,0,0,0,.03.03l.168.032a.405.405,0,0,0,.433-.176c.033-.044.06-.089.091-.134C593.6,322.471,594.021,320.2,593.9,318.333Z" transform="translate(-70.025 -48.564)"/><path class="c" d="M499.764,296.971c-.464-.623-1.3-1.354-2.107-1.021a.066.066,0,0,0-.039.1c.264.488.709.79.964,1.3a3.122,3.122,0,0,1,.187,2.049,7.626,7.626,0,0,1-1.122,2.636,5.43,5.43,0,0,0-.138-3.68c-.008-.018-.035-.012-.04.005a24.478,24.478,0,0,1-1.386,4.411,9.993,9.993,0,0,0-1.083,3.2,4.93,4.93,0,0,0,.211,2.169c.117.331.84,1.51,1.288,1.327.213-.087.194-.388.159-.615a4.609,4.609,0,0,1,.957-3.138c1-1.681,2.379-3.431,2.823-5.367A4.1,4.1,0,0,0,499.764,296.971Z" transform="translate(-3.536 -39.002)"/></g></svg>