<svg xmlns="http://www.w3.org/2000/svg" width="42.464" height="42.463" viewBox="0 0 42.464 42.463"><defs><style>.a{fill:#24b3b3;}.b{fill:#263780;}.c{opacity:0.5;}.c,.d{mix-blend-mode:soft-light;isolation:isolate;}.d{fill:#fff;}</style></defs><g transform="translate(-358.039 -357.565)"><path class="a" d="M395.159,364.888c-.368-.463-.712-.889-1.005-1.241a.839.839,0,0,0-1.12-.141,24.5,24.5,0,0,0-4.106,3.686l-.445.482a13.647,13.647,0,0,0-3.377-2.17c.092-.281.18-.558.267-.832a26.954,26.954,0,0,0,1.243-5.243.84.84,0,0,0-.663-.921c-1.827-.356-4.985-.784-6.774-.94a.839.839,0,0,0-.893.691,24.46,24.46,0,0,0-.3,5.509c.011.309.024.634.042.962a13.718,13.718,0,0,0-3.78.778c-.036.012-.073.028-.108.041-.179-.359-.362-.716-.542-1.064a26.982,26.982,0,0,0-2.828-4.585.838.838,0,0,0-1.121-.181c-1.543,1.04-4.077,2.968-5.453,4.123a.841.841,0,0,0-.143,1.121,24.477,24.477,0,0,0,3.685,4.107l.575.53c-.007.009-.016.015-.024.024a13.846,13.846,0,0,0-2.073,3.4c-.36-.121-.719-.235-1.073-.347a26.934,26.934,0,0,0-5.243-1.243.837.837,0,0,0-.92.665c-.358,1.825-.785,4.982-.942,6.772a.839.839,0,0,0,.693.892,24.575,24.575,0,0,0,5.508.3l.826-.035a14.106,14.106,0,0,0,.878,3.918c-.335.164-.666.336-.992.5a27.012,27.012,0,0,0-4.584,2.83.835.835,0,0,0-.183,1.119c.194.29.42.615.665.957.74,1.037,1.663,2.258,2.475,3.284.359.456.7.873.983,1.215a.838.838,0,0,0,1.119.141,24.294,24.294,0,0,0,4.107-3.686c.19-.2.384-.414.581-.633a14.661,14.661,0,0,0,3.493,2.106c-.131.384-.253.766-.372,1.143a27.1,27.1,0,0,0-1.243,5.24.834.834,0,0,0,.663.921c1.829.359,4.985.784,6.776.943a.836.836,0,0,0,.889-.692,24.349,24.349,0,0,0,.3-5.511c-.011-.3-.023-.611-.04-.932a13.931,13.931,0,0,0,3.859-.941q.275.555.556,1.092a26.983,26.983,0,0,0,2.828,4.585.838.838,0,0,0,1.121.181c1.545-1.037,4.077-2.968,5.453-4.123a.834.834,0,0,0,.143-1.117,24.318,24.318,0,0,0-3.683-4.108c-.211-.195-.43-.4-.657-.6a14.351,14.351,0,0,0,2.194-3.377c.335.115.672.222,1,.326a26.959,26.959,0,0,0,5.242,1.241.834.834,0,0,0,.921-.663c.358-1.825.785-4.983.942-6.772a.839.839,0,0,0-.693-.891,24.306,24.306,0,0,0-5.508-.3l-.733.03a14.821,14.821,0,0,0-.971-3.933c.312-.154.618-.311.916-.466a27.236,27.236,0,0,0,4.586-2.828.84.84,0,0,0,.183-1.122c-.278-.411-.619-.894-.993-1.408C396.618,366.777,395.847,365.763,395.159,364.888Zm-10.6,11.029a5.729,5.729,0,0,1,.594,1.622,5.953,5.953,0,0,1-9.315,6.1,6.1,6.1,0,0,1-1.74-1.943l0,0a6.342,6.342,0,0,1-.828-3.162,6.041,6.041,0,0,1,5.068-5.681,5.828,5.828,0,0,1,4.658,1.211,6.143,6.143,0,0,1,.729.68A5.851,5.851,0,0,1,384.56,375.918Z" transform="translate(0)"/><g transform="translate(362.21 361.888)"><path class="b" d="M421.632,370.076c.12-.8-.629-.917-.749-.118a45.2,45.2,0,0,0-.793,6.808c0,.246.223.289.3.047A45.216,45.216,0,0,0,421.632,370.076Z" transform="translate(-401.627 -369.415)"/><path class="b" d="M449.546,420.3c.8.12.917-.629.118-.749a45.16,45.16,0,0,0-6.808-.792c-.246,0-.289.223-.047.3A45.217,45.217,0,0,0,449.546,420.3Z" transform="translate(-415.956 -400.761)"/><path class="b" d="M408.861,446.852c-.119.8.629.917.749.119a45.158,45.158,0,0,0,.793-6.808c0-.246-.223-.29-.3-.047A45.224,45.224,0,0,0,408.861,446.852Z" transform="translate(-394.486 -414.223)"/><path class="b" d="M370.135,407.116c-.8-.12-.917.628-.118.748a45.147,45.147,0,0,0,6.808.793c.245,0,.289-.222.047-.3A45.161,45.161,0,0,0,370.135,407.116Z" transform="translate(-369.475 -393.355)"/><path class="b" d="M442.986,388.024c.648-.479.2-1.092-.445-.613a45.17,45.17,0,0,0-5.375,4.254c-.173.175-.047.362.178.245A45.21,45.21,0,0,0,442.986,388.024Z" transform="translate(-412.423 -380.736)"/><path class="b" d="M436.6,443.047c.479.648,1.092.2.612-.445a45.117,45.117,0,0,0-4.254-5.375c-.175-.173-.362-.047-.244.178A45.15,45.15,0,0,0,436.6,443.047Z" transform="translate(-409.62 -412.44)"/><path class="b" d="M379.483,433.872c-.648.479-.2,1.093.446.613a45.12,45.12,0,0,0,5.374-4.254c.173-.175.047-.362-.178-.244A45.217,45.217,0,0,0,379.483,433.872Z" transform="translate(-375.631 -407.869)"/><path class="b" d="M389.622,378c-.479-.647-1.092-.2-.612.446a45.121,45.121,0,0,0,4.254,5.375c.175.173.362.047.244-.178A45.206,45.206,0,0,0,389.622,378Z" transform="translate(-381.773 -374.665)"/></g><path class="c" d="M406.5,385.335c.374.514.714,1,.993,1.408a.84.84,0,0,1-.183,1.122,27.234,27.234,0,0,1-4.586,2.828c-.3.155-.6.312-.916.466a14.821,14.821,0,0,1,.971,3.933l.733-.03a24.306,24.306,0,0,1,5.508.3.839.839,0,0,1,.693.891c-.157,1.789-.584,4.947-.942,6.772a.834.834,0,0,1-.921.663,26.961,26.961,0,0,1-5.242-1.241c-.331-.1-.667-.211-1-.326a14.352,14.352,0,0,1-2.194,3.377c.227.2.446.406.657.6a24.319,24.319,0,0,1,3.684,4.108.834.834,0,0,1-.143,1.117c-1.376,1.155-3.908,3.086-5.453,4.123a.838.838,0,0,1-1.121-.181,26.983,26.983,0,0,1-2.828-4.585q-.281-.536-.556-1.092a13.932,13.932,0,0,1-3.859.941c.017.322.03.633.04.932a24.35,24.35,0,0,1-.3,5.511.836.836,0,0,1-.889.692c-1.791-.159-4.947-.584-6.776-.943a.834.834,0,0,1-.663-.921,27.1,27.1,0,0,1,1.243-5.24c.119-.376.241-.758.372-1.143a14.662,14.662,0,0,1-3.493-2.106c-.2.218-.391.429-.581.633a24.3,24.3,0,0,1-4.107,3.686.838.838,0,0,1-1.119-.141c-.287-.342-.624-.759-.983-1.215.494-.535,1.043-1.021,1.559-1.492q.731-.666,1.485-1.3c.8-.683,1.616-1.351,2.425-2.026a1.254,1.254,0,0,1,.6-.336,1.192,1.192,0,0,1,.948.5,9.506,9.506,0,0,0,2.55,1.53A12.329,12.329,0,0,0,400.182,395.5a10.73,10.73,0,0,0-.634-3.513,3.069,3.069,0,0,1-.332-1.11,1.728,1.728,0,0,1,.557-1.2,11.259,11.259,0,0,1,1.625-1.1,18.159,18.159,0,0,1,1.84-1.034,18.638,18.638,0,0,0,3.093-2.07C406.358,385.443,406.418,385.4,406.5,385.335Z" transform="translate(-9.211 -17.64)"/><path class="c" d="M409.469,400.124a6.14,6.14,0,0,0-.729-.68,5.828,5.828,0,0,0-4.658-1.211,6.041,6.041,0,0,0-5.068,5.681,6.343,6.343,0,0,0,.828,3.162,5.168,5.168,0,0,1-1.272-3.569,6.3,6.3,0,0,1,9.154-5.233A5.316,5.316,0,0,1,409.469,400.124Z" transform="translate(-25.746 -25.387)"/><path class="d" d="M395.159,364.888a8.517,8.517,0,0,1-1.53,1.412q-.731.666-1.485,1.3c-.8.684-1.616,1.351-2.425,2.026a1.252,1.252,0,0,1-.6.336,1.192,1.192,0,0,1-.948-.5,9.509,9.509,0,0,0-2.55-1.53,12.329,12.329,0,0,0-18.076,11.658,10.718,10.718,0,0,0,.634,3.512,3.085,3.085,0,0,1,.332,1.11,1.728,1.728,0,0,1-.557,1.2,11.255,11.255,0,0,1-1.625,1.1,18.373,18.373,0,0,1-1.84,1.035,18.726,18.726,0,0,1-3.393,1.737c-.079.023-.16.044-.242.066-.245-.342-.471-.667-.665-.957a.835.835,0,0,1,.183-1.119,27.012,27.012,0,0,1,4.584-2.83c.326-.168.657-.339.992-.5a14.106,14.106,0,0,1-.878-3.918l-.826.035a24.575,24.575,0,0,1-5.508-.3.839.839,0,0,1-.693-.892c.157-1.789.584-4.947.942-6.772a.837.837,0,0,1,.92-.665,26.934,26.934,0,0,1,5.243,1.243c.353.112.713.226,1.073.347a13.846,13.846,0,0,1,2.073-3.4c.007-.009.016-.015.024-.024l-.575-.53a24.477,24.477,0,0,1-3.685-4.107.841.841,0,0,1,.143-1.121c1.376-1.155,3.91-3.084,5.453-4.123a.838.838,0,0,1,1.121.181,26.982,26.982,0,0,1,2.828,4.585c.181.348.364.7.542,1.064.036-.012.072-.028.108-.041a13.718,13.718,0,0,1,3.78-.778c-.018-.328-.03-.653-.042-.962a24.46,24.46,0,0,1,.3-5.509.839.839,0,0,1,.893-.691c1.789.157,4.947.584,6.774.94a.84.84,0,0,1,.663.921,26.954,26.954,0,0,1-1.243,5.243c-.087.274-.175.551-.267.832a13.647,13.647,0,0,1,3.377,2.17l.445-.482a24.5,24.5,0,0,1,4.106-3.686.839.839,0,0,1,1.12.141C394.447,364,394.791,364.425,395.159,364.888Z" transform="translate(0)"/><path class="d" d="M415.558,407.877a5.714,5.714,0,0,1,1.153,3.59,6.245,6.245,0,0,1-2.171,4.422,5.783,5.783,0,0,1-7.7-.293,5.953,5.953,0,0,0,9.315-6.1A5.729,5.729,0,0,0,415.558,407.877Z" transform="translate(-30.998 -31.959)"/></g></svg>