<svg xmlns="http://www.w3.org/2000/svg" width="175.238" height="34.44" viewBox="0 0 175.238 34.44"><defs><style>.a{fill:#7b7b7b;}.b{fill:#f36f22;}.c{fill:#7c7c7c;}</style></defs><g transform="translate(-269.352 -51.5)"><g transform="translate(269.352 51.5)"><g transform="translate(10.651 0)"><path class="a" d="M479.931,61.339a4.919,4.919,0,1,1,4.919-4.919A4.925,4.925,0,0,1,479.931,61.339Zm0-7.819a2.9,2.9,0,1,0,2.9,2.9A2.9,2.9,0,0,0,479.931,53.52Z" transform="translate(-475.012 -51.5)"/></g><g transform="translate(0 6.152)"><path class="a" d="M274.262,180.126a4.92,4.92,0,1,1,2.467-9.181h0a4.919,4.919,0,0,1-1.186,9.011A4.947,4.947,0,0,1,274.262,180.126Zm.013-7.819a2.9,2.9,0,1,0,1.445.388h0A2.881,2.881,0,0,0,274.275,172.307Z" transform="translate(-269.352 -170.287)"/></g><g transform="translate(0 18.45)"><path class="a" d="M274.278,417.578a4.916,4.916,0,1,1,2.451-.658A4.922,4.922,0,0,1,274.278,417.578Zm-.013-7.818a2.882,2.882,0,0,0-1.445.39h0a2.881,2.881,0,1,0,1.445-.39Z" transform="translate(-269.352 -407.739)"/></g><g transform="translate(10.651 24.601)"><path class="a" d="M479.931,536.362a4.919,4.919,0,1,1,4.919-4.919A4.925,4.925,0,0,1,479.931,536.362Zm0-7.819a2.9,2.9,0,1,0,2.9,2.9A2.9,2.9,0,0,0,479.931,528.543Z" transform="translate(-475.012 -526.523)"/></g><g transform="translate(21.305 18.453)"><path class="a" d="M685.643,417.634a4.888,4.888,0,0,1-2.451-.658h0a4.921,4.921,0,1,1,2.451.658Zm-1.441-2.407a2.9,2.9,0,1,0-1.061-3.96,2.9,2.9,0,0,0,1.061,3.96Z" transform="translate(-680.734 -407.799)"/></g><g transform="translate(21.302 6.149)"><path class="a" d="M685.6,180.067a4.916,4.916,0,1,1,2.451-.658A4.922,4.922,0,0,1,685.6,180.067Zm-.013-7.818a2.908,2.908,0,1,0,.755.1A2.916,2.916,0,0,0,685.591,172.249Z" transform="translate(-680.675 -170.228)"/></g><g transform="translate(11.68 11.678)"><circle class="b" cx="1.495" cy="1.495" r="1.495"/></g><g transform="translate(9.373 15.777)"><circle class="b" cx="1.495" cy="1.495" r="1.495" transform="translate(0 0)"/></g><g transform="translate(11.769 19.824)"><circle class="b" cx="1.495" cy="1.495" r="1.495" transform="translate(0 0)"/></g><g transform="translate(16.472 19.772)"><circle class="b" cx="1.495" cy="1.495" r="1.495"/></g><g transform="translate(18.779 15.674)"><circle class="b" cx="1.495" cy="1.495" r="1.495"/></g><g transform="translate(16.383 11.627)"><circle class="b" cx="1.495" cy="1.495" r="1.495"/></g></g><g transform="translate(307.106 56.737)"><path class="b" d="M1007.8,295.4a10.127,10.127,0,0,1-6.958-2.214q-2.5-2.214-2.5-6.508,0-4.327,2.5-6.541a10.129,10.129,0,0,1,6.958-2.214h8.322a6.517,6.517,0,0,1,4.477,1.381,5.012,5.012,0,0,1,1.548,3.945q0,5.227-6.025,5.226h-12.583q.7,3.1,4.261,3.1h13.482V295.4Zm0-13.649q-3.429,0-4.228,2.9h12.317a1.385,1.385,0,0,0,1.049-.4,1.524,1.524,0,0,0,.383-1.1,1.251,1.251,0,0,0-1.432-1.4Z" transform="translate(-998.35 -271.434)"/><path class="b" d="M1519.887,152.616v6.655h-7.49a10.169,10.169,0,0,0-6.961,2.2,9.389,9.389,0,0,0,0,12.748,10.2,10.2,0,0,0,6.961,2.195h12.316v-23.8Zm-7.49,19.97a4.41,4.41,0,0,1-3.314-1.179,6.106,6.106,0,0,1,0-7.125,4.412,4.412,0,0,1,3.314-1.185h7.49v9.488Z" transform="translate(-1476.808 -152.616)"/><path class="b" d="M1996.416,298.282a5.559,5.559,0,0,1-4.278-1.465,5.383,5.383,0,0,1-1.348-3.8V281.138h4.827v11.318a1.765,1.765,0,0,0,2,2h6.925a1.765,1.765,0,0,0,2-2V281.138h4.827v11.884a5.383,5.383,0,0,1-1.348,3.8,5.56,5.56,0,0,1-4.278,1.465Z" transform="translate(-1939.392 -274.482)"/><path class="c" d="M2455.513,298.282V281.138h22.2a5.657,5.657,0,0,1,4.294,1.448,5.331,5.331,0,0,1,1.365,3.812v11.884h-4.826V287a1.81,1.81,0,0,0-2.064-2.031h-4.627v13.316h-4.827V284.966h-6.691v13.316Z" transform="translate(-2380.047 -274.482)"/><path class="c" d="M3060.362,157.63v-3.762h4.893v3.762Zm.033,19.974V160.459h4.827V177.6Z" transform="translate(-2953.572 -153.803)"/><path class="c" d="M3195.982,298.892l6.458-8.555-6.458-8.555h5.659l4.96,6.625h2.43l4.993-6.625h5.625l-6.425,8.555,6.425,8.555h-5.625L3209,292.234h-2.4l-4.96,6.658Z" transform="translate(-3082.167 -275.092)"/></g></g></svg>